<svg width="16" height="16" fill="none" xmlns="http://www.w3.org/2000/svg"><path fill-rule="evenodd" clip-rule="evenodd" d="M8.786 1.52c.34.17.615.445.785.785l4.91 9.819a1.757 1.757 0 01-1.572 2.543H3.09a1.757 1.757 0 01-1.571-2.543l4.91-9.82a1.757 1.757 0 012.357-.785zM7.492 2.98l-4.765 9.53a.568.568 0 00.508.822h9.53a.568.568 0 00.508-.822L8.508 2.98a.568.568 0 00-1.016 0zM8 10.667A.667.667 0 118 12a.667.667 0 010-1.333zm0-5.334c.368 0 .667.299.667.667v2.667a.667.667 0 01-1.334 0V6c0-.368.299-.667.667-.667z" fill="#AF4246"/></svg>