<svg width="16" height="13" viewBox="0 0 16 13" fill="none" xmlns="http://www.w3.org/2000/svg">
<path fill-rule="evenodd" clip-rule="evenodd" d="M7.03224 0.790325L6.96569 0.71967C6.6773 0.449307 6.22351 0.42851 5.90968 0.657278L5.83431 0.71967L0.234315 5.96967L0.201197 6.00264L0.157068 6.05352L0.0997369 6.13695L0.0569804 6.2215L0.0286761 6.30051L0.00552573 6.41143L0 6.5L0.00223029 6.55643L0.0161921 6.65054L0.0397905 6.73411L0.0749387 6.81742L0.116796 6.89053L0.175751 6.96909L0.234315 7.03033L5.83431 12.2803C6.14673 12.5732 6.65327 12.5732 6.96569 12.2803C7.25407 12.01 7.27626 11.5845 7.03224 11.2903L6.96569 11.2197L2.7328 7.25H15.2C15.6418 7.25 16 6.91421 16 6.5C16 6.08579 15.6418 5.75 15.2 5.75H2.7312L6.96569 1.78033C7.25407 1.50997 7.27626 1.08454 7.03224 0.790325L6.96569 0.71967L7.03224 0.790325Z" fill="#929799"/>
</svg>
