<svg width="14" height="15" viewBox="0 0 14 15" fill="none" xmlns="http://www.w3.org/2000/svg">
<path fill-rule="evenodd" clip-rule="evenodd" d="M7.00016 0.833252C10.6821 0.833252 13.6668 3.81802 13.6668 7.49992C13.6668 11.1818 10.6821 14.1666 7.00016 14.1666C3.31826 14.1666 0.333496 11.1818 0.333496 7.49992C0.333496 3.81802 3.31826 0.833252 7.00016 0.833252ZM7.00016 2.16659C4.05464 2.16659 1.66683 4.5544 1.66683 7.49992C1.66683 10.4454 4.05464 12.8333 7.00016 12.8333C9.94568 12.8333 12.3335 10.4454 12.3335 7.49992C12.3335 4.5544 9.94568 2.16659 7.00016 2.16659ZM7.00016 10.1666C7.36835 10.1666 7.66683 10.4651 7.66683 10.8333C7.66683 11.2014 7.36835 11.4999 7.00016 11.4999C6.63197 11.4999 6.3335 11.2014 6.3335 10.8333C6.3335 10.4651 6.63197 10.1666 7.00016 10.1666ZM7.00016 3.49992C7.36835 3.49992 7.66683 3.7984 7.66683 4.16658V8.16658C7.66683 8.53477 7.36835 8.83325 7.00016 8.83325C6.63197 8.83325 6.3335 8.53477 6.3335 8.16658V4.16658C6.3335 3.7984 6.63197 3.49992 7.00016 3.49992Z" fill="#788F78"/>
</svg>
