<svg width="16" height="16" viewBox="0 0 16 16" fill="none" xmlns="http://www.w3.org/2000/svg">
<path fill-rule="evenodd" clip-rule="evenodd" d="M8.78562 1.51914C9.12567 1.68917 9.4014 1.9649 9.57143 2.30495L14.4808 12.1237C14.9148 12.9916 14.563 14.0471 13.695 14.4811C13.451 14.6031 13.182 14.6666 12.9092 14.6666H3.09046C2.12003 14.6666 1.33334 13.8799 1.33334 12.9095C1.33334 12.6367 1.39685 12.3677 1.51885 12.1237L6.42821 2.30495C6.8622 1.43697 7.91765 1.08515 8.78562 1.51914ZM7.4915 2.98095L2.72669 12.5106C2.68722 12.5895 2.66668 12.6765 2.66668 12.7648C2.66668 13.0787 2.92119 13.3333 3.23514 13.3333H12.7648C12.853 13.3333 12.94 13.3127 13.019 13.2732C13.2998 13.1328 13.4136 12.7914 13.2732 12.5106L8.50839 2.98095C8.45339 2.87093 8.36418 2.78173 8.25417 2.72672C7.97336 2.58632 7.63191 2.70014 7.4915 2.98095ZM8.00001 10.6666C8.3682 10.6666 8.66668 10.9651 8.66668 11.3333C8.66668 11.7014 8.3682 11.9999 8.00001 11.9999C7.63182 11.9999 7.33334 11.7014 7.33334 11.3333C7.33334 10.9651 7.63182 10.6666 8.00001 10.6666ZM8.00001 5.33325C8.3682 5.33325 8.66668 5.63173 8.66668 5.99992V8.66658C8.66668 9.03477 8.3682 9.33325 8.00001 9.33325C7.63182 9.33325 7.33334 9.03477 7.33334 8.66658V5.99992C7.33334 5.63173 7.63182 5.33325 8.00001 5.33325Z" fill="#AF4246"/>
</svg>
